<svg width="36" height="36" viewBox="0 0 36 36" fill="none" xmlns="http://www.w3.org/2000/svg">
<path d="M14.4935 29.0146C14.4094 29.0146 14.3161 29.0059 14.2129 28.987L14.255 28.5237L14.6708 28.5237C14.7399 28.5044 14.7947 28.4736 14.8372 28.4353C14.9098 28.3697 14.9518 28.2787 14.969 28.1846C14.9748 28.153 14.9775 28.1182 14.9775 28.0815C14.9775 27.83 14.9753 27.5951 14.9723 27.2798C14.969 26.9258 14.9648 26.486 14.9613 25.9817C11.1703 26.6699 10.2852 24.0074 10.2489 23.8929C9.64571 22.3681 8.81615 21.9794 8.81374 21.9782L8.78261 21.9608C6.87189 20.655 9.00568 20.6821 9.01174 20.6821H9.02639C10.5208 20.7873 11.3167 22.1652 11.3601 22.2422L11.3603 22.2421C11.8145 23.0204 12.3734 23.4042 12.9288 23.5628C13.7343 23.7927 14.5466 23.5601 15.0265 23.3617C15.093 22.9683 15.2027 22.6281 15.3395 22.34C15.4317 22.1458 15.5366 21.9746 15.6493 21.8259C14.2017 21.6205 12.7509 21.2011 11.6175 20.247C10.36 19.1885 9.50774 17.488 9.50774 14.7228H9.50866C9.50878 13.9495 9.64262 13.245 9.88686 12.6085C10.1289 11.9776 10.4798 11.4124 10.9167 10.912C10.8331 10.6745 10.717 10.2606 10.6804 9.71257C10.6355 9.04238 10.7087 8.16794 11.1052 7.16538L11.1143 7.14708C11.1146 7.14659 11.2867 6.99998 11.5301 6.98766C11.6906 6.97955 11.9329 6.98797 12.2598 7.05408C12.8966 7.18284 13.8721 7.53596 15.2187 8.43497C15.7507 8.29194 16.2998 8.18325 16.8568 8.10834C17.4594 8.0273 18.0731 7.98572 18.6859 7.98299H18.6877C19.2999 7.98572 19.9129 8.02731 20.5151 8.1083C21.0724 8.18325 21.622 8.29204 22.155 8.43505C24.8619 6.62738 26.1094 7.02607 26.1131 7.02714L26.2221 7.05948L26.2641 7.16538C26.6622 8.16925 26.736 9.04287 26.6916 9.71165C26.6552 10.2595 26.5396 10.6733 26.4563 10.911C26.893 11.4101 27.2427 11.9747 27.4842 12.6053C27.729 13.2444 27.8625 13.95 27.8625 14.7228C27.8625 17.4957 27.0089 19.1953 25.749 20.2501C24.6148 21.1996 23.1623 21.6136 21.7115 21.8155C21.8811 22.0374 22.0336 22.3104 22.1527 22.6354C22.313 23.073 22.4134 23.606 22.4134 24.2361C22.4134 25.3603 22.4051 26.53 22.3996 27.3044C22.3976 27.5886 22.3961 27.8009 22.3961 28.0815H22.3952C22.3952 28.1165 22.3988 28.1541 22.4063 28.1932C22.4244 28.2869 22.4659 28.3765 22.5367 28.44C22.5755 28.4748 22.6248 28.5032 22.686 28.5221L23.1255 28.522L23.1695 28.9853C23.0653 29.0054 22.9669 29.0147 22.8741 29.0147C22.7843 29.0148 22.7015 29.0058 22.6256 28.9891L14.7346 28.9906C14.6605 29.0062 14.5803 29.0146 14.4935 29.0146L14.4935 29.0146ZM15.4286 28.2688C15.4127 28.3556 15.3854 28.4419 15.3452 28.5235L22.0263 28.5223C21.9887 28.4448 21.9626 28.3632 21.9467 28.2812C21.9342 28.2164 21.9283 28.149 21.9283 28.0815H21.9273C21.9273 28.0576 21.9296 27.7345 21.9327 27.3026C21.9374 26.6311 21.9447 25.618 21.9447 24.2361C21.9447 23.6635 21.8555 23.185 21.7133 22.7966C21.5505 22.3523 21.3194 22.0278 21.0753 21.8177L20.6678 21.467L21.2025 21.4076C22.7253 21.2382 24.2828 20.8673 25.4487 19.8912C26.6082 18.9205 27.3937 17.335 27.3937 14.7228C27.3937 14.0084 27.2712 13.3584 27.0466 12.772C26.8092 12.1521 26.4574 11.6016 26.0153 11.1196L25.915 11.0103L25.9704 10.8734C26.0378 10.7071 26.1844 10.2892 26.2247 9.68237C26.2637 9.09391 26.2029 8.33229 25.8759 7.45643C25.5504 7.41864 24.4513 7.44179 22.327 8.88166L22.2373 8.94246L22.1339 8.9137C21.5896 8.76251 21.0258 8.64865 20.4529 8.57159C19.8684 8.49297 19.276 8.45262 18.6868 8.44994C18.0969 8.45262 17.5039 8.49295 16.919 8.57162C16.3464 8.64865 15.7831 8.76246 15.2398 8.9137L15.1364 8.94249L15.0466 8.88166C13.7159 7.98026 12.7733 7.63422 12.1683 7.51186C11.8885 7.45529 11.6853 7.44787 11.552 7.45461C11.5135 7.45655 11.5222 7.39761 11.5283 7.36987C11.1727 8.28342 11.1067 9.07507 11.1473 9.68145C11.1879 10.2891 11.3347 10.7071 11.4025 10.8734L11.4579 11.0092L11.3576 11.1187C10.9161 11.6012 10.5632 12.153 10.3245 12.7752C10.0992 13.3623 9.97569 14.0113 9.97559 14.7228H9.9765C9.9765 17.3293 10.7607 18.9159 11.9178 19.89C13.0808 20.869 14.6349 21.2458 16.1533 21.4186L16.6796 21.4784L16.2815 21.8269C16.0914 21.9932 15.9097 22.2296 15.7625 22.5396C15.6295 22.8197 15.5255 23.1581 15.4694 23.5571L15.4514 23.6851L15.333 23.7383C14.8174 23.97 13.8157 24.303 12.8006 24.0132C12.1398 23.8246 11.4803 23.3773 10.9556 22.4783L10.9538 22.4747C10.9518 22.4711 10.2745 21.24 8.99666 21.1492C8.91258 21.151 8.47203 21.1788 9.03806 21.5688C9.19056 21.6501 10.0764 22.1768 10.6889 23.7331L10.6944 23.7477C10.6967 23.7549 11.4547 26.2699 15.1435 25.4684L15.4246 25.4073L15.4264 25.6964C15.4301 26.3152 15.4352 26.8559 15.4392 27.2762C15.4433 27.7021 15.4463 28.0208 15.4463 28.0815C15.4463 28.1404 15.4406 28.2034 15.4286 28.2688L15.4286 28.2688Z" fill="#fafafa" stroke="#fafafa" stroke-width="0.5"/>
</svg>
