<svg width="32" height="29" viewBox="0 0 32 29" fill="none" xmlns="http://www.w3.org/2000/svg">
<path d="M30.9999 8.4C30.2131 10.5406 28.9348 12.4666 27.2679 14.023C25.6382 12.8924 23.7433 12.2033 21.7679 12.023" stroke="#555555" stroke-width="2" stroke-linecap="round" stroke-linejoin="round"/>
<path d="M27.268 14.019C27.1807 12.7919 26.9111 11.5846 26.468 10.437C26.0416 9.28063 25.4418 8.19588 24.689 7.22C23.9522 6.22678 23.07 5.35027 22.072 4.62C21.0844 3.87001 19.9903 3.27174 18.826 2.845C16.369 1.92237 13.6938 1.74838 11.138 2.345C8.58595 2.93597 6.26982 4.27883 4.489 6.2C3.59464 7.13778 2.85568 8.2123 2.3 9.383C1.72362 10.5409 1.33799 11.7842 1.158 13.065C1.06282 13.7025 1.01004 14.3455 1 14.99C1.01003 15.6348 1.06281 16.2782 1.158 16.916C1.33713 18.1969 1.72067 19.4407 2.294 20.6C2.84684 21.7727 3.58346 22.8496 4.476 23.79C5.35399 24.7495 6.37587 25.5666 7.505 26.212C9.77399 27.524 12.3804 28.1355 14.9962 27.9695C17.6119 27.8035 20.1201 26.8674 22.205 25.279C24.2761 23.6956 25.8259 21.5286 26.655 19.057" stroke="#555555" stroke-width="2" stroke-linecap="round" stroke-linejoin="round"/>
</svg>
