<svg width="32" height="32" viewBox="0 0 32 32" fill="none" xmlns="http://www.w3.org/2000/svg">
<path d="M16 5.33333V1.33333L21.3334 6.66667L16 12V8C11.5867 8 8.00002 11.5867 8.00002 16C8.00002 17.3467 8.33336 18.6267 8.93336 19.7333L6.98669 21.68C5.94669 20.04 5.33335 18.0933 5.33335 16C5.33335 10.1067 10.1067 5.33333 16 5.33333ZM16 24C20.4134 24 24 20.4133 24 16C24 14.6533 23.6667 13.3733 23.0667 12.2667L25.0134 10.32C26.0534 11.96 26.6667 13.9067 26.6667 16C26.6667 21.8933 21.8934 26.6667 16 26.6667V30.6667L10.6667 25.3333L16 20V24Z" fill="#666666"/>
</svg>
