<svg width="670" height="200" viewBox="0 0 670 200" fill="none" xmlns="http://www.w3.org/2000/svg">
<path d="M122.6 131.48C123.88 133.32 125 134.72 125.96 135.68C126.92 136.64 128.04 137.24 129.32 137.48V140C122.92 139.68 118.64 139.52 116.48 139.52C114.08 139.52 108.88 139.68 100.88 140V137.48C102.08 137.48 103.04 137.28 103.76 136.88C104.56 136.48 104.96 135.88 104.96 135.08C104.96 134.6 104.76 134.04 104.36 133.4L91.88 114.8L87.68 120.08C85.04 123.52 83.72 126.72 83.72 129.68C83.72 131.92 84.48 133.76 86 135.2C87.6 136.56 89.72 137.36 92.36 137.6V140C87.72 139.76 81.96 139.64 75.08 139.64C71.8 139.64 69 139.76 66.68 140V137.6C68.52 136.96 70.28 135.92 71.96 134.48C73.64 133.04 75.52 131 77.6 128.36L90.44 112.64L72.8 86.48C71.28 84.32 70.08 82.84 69.2 82.04C68.32 81.16 67.28 80.64 66.08 80.48V77.96C73.12 78.28 77.88 78.44 80.36 78.44C82.44 78.44 87.16 78.28 94.52 77.96V80.48C93.32 80.48 92.32 80.68 91.52 81.08C90.8 81.48 90.44 82.08 90.44 82.88C90.44 83.52 90.64 84.08 91.04 84.56L102.32 101.36L106.88 95.36C109.68 91.68 111.08 88.6 111.08 86.12C111.08 84.44 110.44 83.12 109.16 82.16C107.96 81.12 106.16 80.52 103.76 80.36V77.96C108.4 78.2 112.92 78.32 117.32 78.32C120.68 78.32 123.52 78.2 125.84 77.96V80.36C122.48 81.48 118.8 84.56 114.8 89.6L103.76 103.4L122.6 131.48ZM197.616 55.04C197.056 61.84 196.776 67.92 196.776 73.28C196.776 77.04 196.896 80.08 197.136 82.4H194.376C192.776 73.36 190.376 67 187.176 63.32C183.976 59.64 179.496 57.8 173.736 57.8H169.776C167.296 57.8 165.496 58 164.376 58.4C163.256 58.8 162.496 59.6 162.096 60.8C161.696 61.92 161.496 63.76 161.496 66.32V96.56H165.696C169.936 96.56 173.136 95 175.296 91.88C177.536 88.76 179.096 85.04 179.976 80.72H182.736C182.496 84.08 182.376 87.84 182.376 92V97.76C182.376 101.84 182.616 107.52 183.096 114.8H180.336C178.656 104.24 173.776 98.96 165.696 98.96H161.496V126.56C161.496 129.76 161.816 132.12 162.456 133.64C163.176 135.08 164.376 136.04 166.056 136.52C167.816 137 170.576 137.28 174.336 137.36V140C164.496 139.76 157.176 139.64 152.376 139.64C148.376 139.64 143.336 139.72 137.256 139.88L133.416 140V137.6C136.056 137.44 137.976 137.12 139.176 136.64C140.456 136.16 141.296 135.24 141.696 133.88C142.176 132.52 142.416 130.32 142.416 127.28V67.76C142.416 64.72 142.176 62.52 141.696 61.16C141.296 59.8 140.456 58.88 139.176 58.4C137.976 57.92 136.056 57.6 133.416 57.44V55.04C142.056 55.28 155.096 55.4 172.536 55.4C184.296 55.4 192.656 55.28 197.616 55.04ZM231.145 76.28C240.345 76.28 247.545 78.92 252.745 84.2C257.945 89.4 260.545 97.68 260.545 109.04C260.545 120.4 257.945 128.68 252.745 133.88C247.545 139.08 240.345 141.68 231.145 141.68C222.025 141.68 214.825 139.08 209.545 133.88C204.345 128.68 201.745 120.4 201.745 109.04C201.745 97.68 204.345 89.4 209.545 84.2C214.825 78.92 222.025 76.28 231.145 76.28ZM231.145 78.68C227.705 78.68 224.945 81.2 222.865 86.24C220.865 91.2 219.865 98.8 219.865 109.04C219.865 119.28 220.865 126.88 222.865 131.84C224.945 136.8 227.705 139.28 231.145 139.28C234.665 139.28 237.425 136.84 239.425 131.96C241.425 127 242.425 119.36 242.425 109.04C242.425 98.72 241.385 91.08 239.305 86.12C237.305 81.16 234.585 78.68 231.145 78.68Z" fill="white"/>
<path d="M379.16 74.28C382.76 74.28 385.48 75.36 387.32 77.52C389.16 79.68 390.08 82.28 390.08 85.32C390.08 88.28 389.2 90.72 387.44 92.64C385.76 94.48 383.52 95.4 380.72 95.4C378 95.4 375.84 94.72 374.24 93.36C372.64 91.92 371.84 90.04 371.84 87.72C371.84 83.88 373.6 80.76 377.12 78.36C376.8 78.28 376.32 78.24 375.68 78.24C374.88 78.24 374.24 78.32 373.76 78.48C370.72 78.96 368.12 80.8 365.96 84C363.88 87.2 362.84 90.48 362.84 93.84V125.64C362.84 129.32 363.72 131.88 365.48 133.32C367.32 134.76 370.2 135.48 374.12 135.48V138C373 138 372.08 137.96 371.36 137.88C363.2 137.64 357.76 137.52 355.04 137.52C352.88 137.52 347.96 137.64 340.28 137.88C339.64 137.96 338.84 138 337.88 138V135.48C340.76 135.48 342.76 134.88 343.88 133.68C345 132.4 345.56 130.12 345.56 126.84V89.04C345.56 85.36 345 82.68 343.88 81C342.76 79.32 340.76 78.48 337.88 78.48V75.96C340.44 76.2 342.92 76.32 345.32 76.32C352.44 76.32 358.28 75.76 362.84 74.64V85.8C364.36 82.36 366.56 79.6 369.44 77.52C372.32 75.36 375.56 74.28 379.16 74.28ZM427.535 129.84C434.095 129.84 439.375 126.64 443.375 120.24L445.535 120.96C443.935 126.16 441.055 130.6 436.895 134.28C432.815 137.88 427.695 139.68 421.535 139.68C413.055 139.68 406.295 137 401.255 131.64C396.295 126.2 393.815 118.2 393.815 107.64C393.815 96.84 396.495 88.6 401.855 82.92C407.215 77.16 414.335 74.28 423.215 74.28C438.255 74.28 445.775 83.16 445.775 100.92H412.055C411.975 102.12 411.935 104 411.935 106.56C411.935 111.84 412.655 116.24 414.095 119.76C415.615 123.28 417.535 125.84 419.855 127.44C422.255 129.04 424.815 129.84 427.535 129.84ZM422.495 76.8C419.615 76.8 417.215 78.6 415.295 82.2C413.455 85.72 412.295 91.2 411.815 98.64H430.655C430.815 92.32 430.175 87.12 428.735 83.04C427.375 78.88 425.295 76.8 422.495 76.8ZM483.924 74.28C486.884 74.28 489.684 74.6 492.324 75.24C494.964 75.88 497.164 76.76 498.924 77.88C501.004 79.16 502.604 80.8 503.724 82.8C504.924 84.72 505.524 86.84 505.524 89.16C505.524 91.96 504.644 94.28 502.884 96.12C501.124 97.88 498.844 98.76 496.044 98.76C493.244 98.76 491.004 97.96 489.324 96.36C487.644 94.76 486.804 92.6 486.804 89.88C486.804 87.48 487.564 85.4 489.084 83.64C490.604 81.88 492.484 80.68 494.724 80.04C494.084 79.16 493.084 78.48 491.724 78C490.444 77.44 489.044 77.16 487.524 77.16C482.724 77.16 478.964 79.8 476.244 85.08C473.604 90.28 472.284 97.12 472.284 105.6C472.284 114.16 473.804 120.32 476.844 124.08C479.884 127.84 483.684 129.72 488.244 129.72C490.964 129.72 493.684 129 496.404 127.56C499.204 126.12 501.724 123.6 503.964 120L506.004 120.72C504.404 125.92 501.604 130.4 497.604 134.16C493.604 137.84 488.444 139.68 482.124 139.68C473.884 139.68 467.164 136.96 461.964 131.52C456.764 126.08 454.164 118 454.164 107.28C454.164 100.24 455.444 94.24 458.004 89.28C460.564 84.32 464.084 80.6 468.564 78.12C473.044 75.56 478.164 74.28 483.924 74.28ZM528.095 138.84C522.975 138.84 519.135 137.52 516.575 134.88C514.095 132.24 512.855 128.76 512.855 124.44C512.855 120.84 513.775 117.88 515.615 115.56C517.535 113.16 519.815 111.32 522.455 110.04C525.175 108.76 528.615 107.4 532.775 105.96C537.175 104.44 540.375 103.08 542.375 101.88C544.455 100.6 545.495 98.88 545.495 96.72V87.36C545.495 84 544.695 81.4 543.095 79.56C541.575 77.64 539.175 76.68 535.895 76.68C532.055 76.68 529.135 77.64 527.135 79.56C529.375 80.36 531.095 81.56 532.295 83.16C533.575 84.76 534.215 86.64 534.215 88.8C534.215 91.52 533.295 93.68 531.455 95.28C529.615 96.88 527.375 97.68 524.735 97.68C521.935 97.68 519.775 96.8 518.255 95.04C516.735 93.28 515.975 91.08 515.975 88.44C515.975 86.2 516.495 84.32 517.535 82.8C518.655 81.2 520.335 79.72 522.575 78.36C524.735 77.08 527.375 76.08 530.495 75.36C533.695 74.64 537.175 74.28 540.935 74.28C544.855 74.28 548.255 74.68 551.135 75.48C554.015 76.28 556.415 77.64 558.335 79.56C560.095 81.32 561.255 83.48 561.815 86.04C562.455 88.6 562.775 92.08 562.775 96.48V129.12C562.775 131.04 562.935 132.4 563.255 133.2C563.655 134 564.375 134.4 565.415 134.4C566.615 134.4 568.055 133.72 569.735 132.36L570.935 134.4C567.335 137.36 562.935 138.84 557.735 138.84C553.335 138.84 550.255 137.96 548.495 136.2C546.735 134.44 545.815 132.08 545.735 129.12C541.735 135.6 535.855 138.84 528.095 138.84ZM537.335 131.16C540.455 131.16 543.175 129.52 545.495 126.24V101.64C544.535 103.24 542.495 105 539.375 106.92C536.255 108.92 533.895 110.92 532.295 112.92C530.695 114.92 529.895 117.8 529.895 121.56C529.895 124.84 530.575 127.28 531.935 128.88C533.295 130.4 535.095 131.16 537.335 131.16ZM598.124 74.28C601.164 74.28 603.964 74.68 606.524 75.48C609.084 76.2 611.044 77.04 612.404 78C613.204 78.56 613.924 78.84 614.564 78.84C615.284 78.84 615.884 78.48 616.364 77.76C616.924 76.96 617.284 75.84 617.444 74.4H619.964C619.644 78.48 619.484 85.52 619.484 95.52H616.964C616.244 90.24 614.644 85.84 612.164 82.32C609.764 78.72 606.244 76.92 601.604 76.92C599.204 76.92 597.204 77.6 595.604 78.96C594.084 80.32 593.324 82.2 593.324 84.6C593.324 87.32 594.244 89.68 596.084 91.68C597.924 93.6 600.804 95.96 604.724 98.76L608.204 101.28C613.084 104.96 616.684 108.24 619.004 111.12C621.324 114 622.484 117.6 622.484 121.92C622.484 125.44 621.444 128.56 619.364 131.28C617.364 134 614.644 136.08 611.204 137.52C607.764 138.96 603.964 139.68 599.804 139.68C595.404 139.68 591.644 138.84 588.524 137.16C585.964 135.88 584.124 135.04 583.004 134.64C582.204 134.4 581.484 134.68 580.844 135.48C580.284 136.2 579.844 137.32 579.524 138.84H577.004C577.324 134.28 577.484 126.28 577.484 114.84H580.004C581.604 129.56 587.004 136.92 596.204 136.92C598.524 136.92 600.484 136.24 602.084 134.88C603.764 133.44 604.604 131.28 604.604 128.4C604.604 126.16 604.084 124.16 603.044 122.4C602.084 120.64 600.844 119.08 599.324 117.72C597.804 116.36 595.524 114.48 592.484 112.08C588.884 109.2 586.124 106.88 584.204 105.12C582.364 103.36 580.764 101.28 579.404 98.88C578.124 96.48 577.484 93.8 577.484 90.84C577.484 85.72 579.484 81.68 583.484 78.72C587.484 75.76 592.364 74.28 598.124 74.28ZM654.154 75.96H668.314V78.36H654.154V126.84C654.154 129.24 654.554 130.96 655.354 132C656.234 132.96 657.594 133.44 659.434 133.44C662.874 133.44 665.594 131.04 667.594 126.24L669.634 127.32C666.594 135.56 661.114 139.68 653.194 139.68C647.914 139.68 643.914 138.32 641.194 135.6C639.514 133.92 638.354 131.84 637.714 129.36C637.154 126.8 636.874 123.32 636.874 118.92V78.36H626.794V75.96H636.874V60.12C643.514 60.12 649.274 58.84 654.154 56.28V75.96Z" fill="white"/>
<path d="M250 40C246.68 40 243.399 40.2344 240.13 40.7031C221.459 15.2606 191.992 0 160 0C128.008 0 98.555 15.2606 79.87 40.7031C76.6012 40.2344 73.32 40 70 40C31.4062 40 0 71.4062 0 110C0 148.594 31.4062 180 70 180C78.555 180 86.9275 178.437 94.8181 175.417C112.916 191.198 135.938 200 160 200C184.089 200 207.083 191.198 225.182 175.417C233.072 178.437 241.445 180 250 180C288.594 180 320 148.594 320 110C320 71.4062 288.594 40 250 40ZM250 160C239.297 160 229.428 156.563 221.289 150.833C206.615 168.515 184.765 180 160 180C135.234 180 113.385 168.515 98.7113 150.833C90.5863 156.563 80.7031 160 70 160C42.3825 160 20 137.617 20 110C20 82.3825 42.3825 60 70 60C76.7575 60 83.1638 61.38 89.0238 63.8019C102.292 37.9169 128.932 20 160 20C191.068 20 217.709 37.9169 230.963 63.8019C236.836 61.38 243.256 60 250 60C277.617 60 300 82.3825 300 110C300 137.617 277.617 160 250 160Z" fill="white"/>
</svg>
