<svg width="36" height="36" viewBox="0 0 36 36" fill="none" xmlns="http://www.w3.org/2000/svg">
<g clip-path="url(#clip0)">
<path d="M28.1146 24.3769C27.6494 24.8242 27.0281 25.1126 26.3542 25.1252C20.8951 25.1589 15.4357 25.1589 9.97663 25.1252C8.62513 25.1001 7.41032 23.9289 7.38445 22.533C7.36176 19.0114 7.36176 15.4894 7.38445 11.9677C7.40957 10.6157 8.58013 9.40161 9.97663 9.37555C15.4357 9.34161 20.8951 9.34161 26.3542 9.37555C27.7106 9.40086 28.9205 10.5714 28.9464 11.9677C28.967 15.4896 28.967 19.0112 28.9464 22.533C28.9368 23.0541 28.7579 23.5536 28.4619 23.9728C28.4741 24.0724 28.4199 24.1494 28.3636 24.2246C28.3008 24.309 28.2121 24.3637 28.1146 24.3769ZM20.8381 17.5382L20.4163 17.9454C19.1626 19.1415 17.0349 19.1923 15.728 17.9441L15.6359 17.8552L8.97351 24.0439C9.26488 24.2452 9.61288 24.3682 9.98582 24.3752C15.4389 24.4089 20.8919 24.4089 26.345 24.3752C26.7596 24.3675 27.1569 24.2111 27.4764 23.9548L20.8381 17.5382ZM8.48301 10.9412C8.27132 11.2374 8.14138 11.5942 8.13426 11.9771C8.11176 15.4926 8.11176 19.0082 8.13426 22.5236C8.14082 22.8774 8.25576 23.2177 8.44832 23.5082L15.0959 17.3332L8.48301 10.9412ZM27.7715 10.8442L21.3779 17.0169L27.9624 23.3814C28.1054 23.1253 28.1908 22.8336 28.1966 22.5238C28.217 19.0082 28.217 15.4926 28.1966 11.9769C28.1887 11.5605 28.0297 11.1632 27.7715 10.8442ZM27.1951 10.3582C26.9394 10.2157 26.6497 10.1312 26.345 10.1256C20.9002 10.0918 15.4552 10.1254 10.0104 10.1254C9.65807 10.1276 9.31832 10.2371 9.02695 10.4241C11.441 12.7596 13.8434 15.1071 16.2725 17.427C17.2503 18.3371 18.8893 18.3656 19.8969 17.4043L27.1951 10.3582Z" fill="#fafafa"/>
</g>
<defs>
<clipPath id="clip0">
<rect width="24" height="24" fill="white" transform="translate(6 6)"/>
</clipPath>
</defs>
</svg>
