<svg width="114" height="128" viewBox="0 0 114 128" fill="none" xmlns="http://www.w3.org/2000/svg">
<g clip-path="url(#clip0)">
<path d="M0.299552 79.0665C0.299552 79.0665 0.0609711 138.954 25.1202 126.204C48.8695 114.121 0.299552 79.0665 0.299552 79.0665Z" fill="#2B2B2B"/>
<path d="M43.8392 81.6693C43.8392 81.6693 43.6302 132.783 65.0225 121.9C85.2931 111.587 43.8392 81.6693 43.8392 81.6693Z" fill="#2B2B2B"/>
<path d="M26.0022 61.2893C46.2697 50.9796 4.82915 21.059 4.82915 21.059C4.82915 21.059 4.6167 72.1723 26.0022 61.2893Z" fill="#2B2B2B"/>
<path d="M85.0109 60.7254C85.0109 60.7254 84.792 111.839 106.191 100.956C126.455 90.646 85.0109 60.7254 85.0109 60.7254Z" fill="#2B2B2B"/>
<path d="M45.988 0.114746C45.988 0.114746 45.7824 51.2284 67.1678 40.345C87.4388 30.0319 45.988 0.114746 45.988 0.114746Z" fill="#2B2B2B"/>
<path d="M57.9984 73.5189C72.7915 65.9946 42.5392 44.1551 42.5392 44.1551C42.5392 44.1551 42.3866 81.4674 57.9984 73.5189Z" fill="#2B2B2B"/>
<path d="M109.388 58.2086C124.181 50.6846 93.9282 28.8447 93.9282 28.8447C93.9282 28.8447 93.7755 66.1571 109.388 58.2086Z" fill="#2B2B2B"/>
</g>
<defs>
<clipPath id="clip0">
<rect width="113.609" height="128" fill="white"/>
</clipPath>
</defs>
</svg>
