<svg width="183" height="128" viewBox="0 0 183 128" fill="none" xmlns="http://www.w3.org/2000/svg">
<g clip-path="url(#clip0)">
<path d="M9.14286 18.2857H173.714C178.762 18.2857 182.857 14.1903 182.857 9.14286C182.857 4.09543 178.762 0 173.714 0H9.14286C4.09543 0 0 4.09543 0 9.14286C0 14.1903 4.09543 18.2857 9.14286 18.2857ZM173.714 36.5714H9.14286C4.09543 36.5714 0 40.6669 0 45.7143C0 50.7617 4.09543 54.8571 9.14286 54.8571H173.714C178.762 54.8571 182.857 50.7617 182.857 45.7143C182.857 40.6669 178.762 36.5714 173.714 36.5714ZM173.714 73.1429H9.14286C4.09543 73.1429 0 77.2383 0 82.2857C0 87.3331 4.09543 91.4286 9.14286 91.4286H173.714C178.762 91.4286 182.857 87.3331 182.857 82.2857C182.857 77.2383 178.762 73.1429 173.714 73.1429ZM173.714 109.714H9.14286C4.09543 109.714 0 113.81 0 118.857C0 123.905 4.09543 128 9.14286 128H173.714C178.762 128 182.857 123.905 182.857 118.857C182.857 113.81 178.762 109.714 173.714 109.714Z" fill="#2B2B2B"/>
</g>
<defs>
<clipPath id="clip0">
<rect width="182.857" height="128" fill="white"/>
</clipPath>
</defs>
</svg>
