<svg width="155" height="128" viewBox="0 0 155 128" fill="none" xmlns="http://www.w3.org/2000/svg">
<g clip-path="url(#clip0)">
<path d="M120.326 92.9657C127.656 92.9682 134.726 90.2478 140.165 85.3324C145.603 80.417 149.022 73.6569 149.758 66.3635C150.494 59.0701 148.494 51.7632 144.148 45.8603C139.801 39.9575 133.417 35.8794 126.234 34.4171C123.879 26.8052 119.412 20.0176 113.354 14.8424C107.295 9.66716 99.8928 6.31662 92.0062 5.1798C84.1197 4.04298 76.0724 5.16651 68.7989 8.41994C61.5253 11.6734 55.3237 16.9232 50.9143 23.56C46.024 21.9728 40.8477 21.4648 35.7421 22.0709C30.6365 22.677 25.7231 24.3828 21.3403 27.0709C16.9575 29.7589 13.2097 33.3653 10.355 37.6414C7.50031 41.9175 5.60668 46.7617 4.8046 51.8402C4.00251 56.9187 4.31104 62.1107 5.70892 67.0584C7.10681 72.0062 9.5608 76.592 12.9018 80.4999C16.2428 84.4079 20.3914 87.545 25.0617 89.695C29.7319 91.8451 34.8128 92.9571 39.9543 92.9543" fill="white"/>
<path d="M120.326 97.2514C128.593 97.1643 136.55 94.0875 142.725 88.5897C148.9 83.092 152.877 75.5448 153.92 67.3428C156.034 50.2 144.206 33.9314 127.371 30.28L130.366 33.2743C125.183 17.0514 111.411 4.23998 94.4743 1.27427C85.4919 -0.306312 76.2438 0.755822 67.8535 4.33163C59.4633 7.90743 52.2922 13.843 47.2114 21.4171L52.0514 19.4457C34.1086 13.9086 14.1371 21.6 5.04572 38.1714C-3.61714 53.9714 -0.451425 74.3828 12.8514 86.6228C20.2548 93.4016 29.9108 97.1911 39.9486 97.2571C45.4686 97.32 45.4686 88.7486 39.9486 88.6857C25.9486 88.5314 13.4571 79.2 9.75429 65.6C7.99323 58.9239 8.47046 51.8545 11.1128 45.4757C13.7552 39.0969 18.4168 33.7609 24.3829 30.2857C32.1429 25.8114 41.2629 25.0914 49.7714 27.72C51.68 28.2914 53.56 27.2971 54.6114 25.7486C62.9772 13.44 78.28 6.81142 92.9829 9.69142C99.7064 11.0081 105.954 14.1036 111.074 18.6553C116.195 23.2071 120.001 29.0486 122.097 35.5714C122.296 36.2861 122.676 36.9372 123.201 37.4618C123.726 37.9864 124.377 38.3666 125.091 38.5657C137.966 41.36 147.091 53.28 145.44 66.5657C143.874 79.1886 132.869 88.5143 120.297 88.68C114.789 88.7543 114.771 97.3257 120.297 97.2514H120.326Z" fill="#2B2B2B"/>
<path d="M109.023 104.52L106.371 102.989L108.166 101.943C112.931 99.1714 108.623 91.76 103.84 94.5143L99.0115 97.32C98.6343 97.5371 98.2115 97.76 97.7658 97.9943L96.0515 97.0057V88.7714L97.7658 87.7771C98.2 88.0057 98.6286 88.2286 99.0115 88.4514L103.84 91.2572C108.617 94.0343 112.937 86.6286 108.166 83.8286L106.371 82.7829L108.086 81.8L109.154 81.1829C113.011 78.9543 110.937 73.6914 107.469 73.1829C107.173 73.1472 106.873 73.1472 106.577 73.1829C105.958 73.2465 105.36 73.4413 104.823 73.7543L102.097 75.3314C102.097 74.6457 102.097 73.96 102.097 73.2743C102.097 73.1429 102.097 73.0114 102.097 72.8857C101.737 68.3714 95.3601 67.9314 93.8629 71.5829C93.6425 72.1271 93.5337 72.71 93.5429 73.2971V78.88C93.5429 79.3029 93.5429 79.7771 93.5029 80.2629V80.32L91.3086 81.5886L87.7715 79.5486C87.2 79.2 86.4915 78.7429 85.7658 78.2686C85.4 78.0286 85.0172 77.7829 84.6229 77.5486V75.2057C85.0572 74.9314 85.48 74.6629 85.8686 74.44L90.7086 71.6629C91.0059 71.4937 91.2837 71.2925 91.5372 71.0629C94.9143 67.9829 90.8629 61.6914 86.3943 64.2629L84.6286 65.2743V62.2857C84.6286 56.7714 76.0572 56.76 76.0572 62.2857V65.3257L74.2858 64.2914C70.16 61.9257 66.3829 67.0857 68.4743 70.32C68.8512 70.8922 69.3609 71.3647 69.96 71.6972L74.8 74.4743C75.1886 74.6971 75.6115 74.9657 76.0458 75.24V77.6686C75.0343 78.2972 74.0743 78.9714 73.2629 79.44L69.4286 81.6571L67.1772 80.3543C67.1772 79.8514 67.1372 79.3657 67.1372 78.9143V73.3314C67.1372 67.8171 58.5658 67.8057 58.5658 73.3314C58.5658 74.0171 58.5658 74.7029 58.5658 75.3886L55.84 73.8114C51.0515 71.0514 46.7315 78.4514 51.5143 81.24L54.28 82.84L52.4858 83.8857C47.72 86.6571 52.0286 94.0686 56.8115 91.3143L61.64 88.5086C62.0172 88.2914 62.44 88.0686 62.8858 87.8343L64.7143 88.8914V97.0229L62.8858 98.08C62.4515 97.8514 62.0229 97.6286 61.64 97.4057L56.8115 94.6C52.0343 91.8229 47.7143 99.2286 52.4858 102.029L54.28 103.074L51.6286 104.606C46.8515 107.366 51.1658 114.771 55.9543 112.034L58.5715 110.526C58.5715 111.211 58.5715 111.897 58.5715 112.583C58.5715 118.097 67.1429 118.109 67.1429 112.583V107C67.1429 106.56 67.1429 106.069 67.1829 105.56L68.5315 104.783L73.0286 107.377C73.9029 107.88 74.9486 108.629 76.0572 109.309V110.674C75.6229 110.949 75.2 111.217 74.8115 111.44L69.9715 114.217C65.1886 116.96 69.5029 124.371 74.2972 121.646L76.0629 120.634V123.806C76.0629 129.32 84.6343 129.331 84.6343 123.806V120.634L86.4001 121.646C91.1943 124.394 95.5429 116.994 90.7258 114.217L85.8858 111.44C85.4972 111.217 85.0743 110.949 84.64 110.674V109.354C85.6972 108.703 86.6972 107.994 87.5372 107.509L92.2172 104.806L93.5143 105.554C93.5143 106.057 93.5543 106.543 93.5543 106.994V112.577C93.5543 118.091 102.126 118.103 102.126 112.577C102.126 111.891 102.126 111.206 102.126 110.52L104.743 112.029C109.48 114.686 113.8 107.28 109.023 104.52ZM80.3829 101.617L80.3258 101.583L77.0915 99.7143L76.04 99.1086L73.2858 97.52V89.3257L73.7086 89.08L76.04 87.7314L77.9943 86.5886L80.3258 85.24L80.3829 85.2057L82.7143 86.5543L84.6115 87.6514L87 89.0286L87.48 89.3029V97.4971L84.6229 99.1543L83.6286 99.7257L80.3829 101.617Z" fill="#2B2B2B"/>
</g>
<defs>
<clipPath id="clip0">
<rect width="154.286" height="128" fill="white"/>
</clipPath>
</defs>
</svg>
