<svg width="172" height="128" viewBox="0 0 172 128" fill="none" xmlns="http://www.w3.org/2000/svg">
<g clip-path="url(#clip0)">
<path d="M163.075 100.518C163.341 108.393 158.509 115.835 150.991 118.454C147.704 119.599 144.412 119.49 141.006 119.49H91.9322C89.4427 119.49 86.9478 119.517 84.4529 119.49C80.2947 119.496 76.2148 118.359 72.6585 116.204C69.1022 114.049 66.2062 110.959 64.2866 107.27C62.3671 103.582 61.4976 99.4366 61.7732 95.2875C62.0488 91.1384 63.4589 87.1447 65.8495 83.7424C71.5607 75.4278 82.1207 72.3526 91.5905 75.2597C93.4075 75.802 95.181 74.8583 96.1844 73.3885C102.297 64.4502 113.443 59.6014 124.155 61.7003C129.047 62.6578 133.594 64.9032 137.329 68.2049C141.064 71.5066 143.85 75.745 145.399 80.4827C145.5 81.2146 145.834 81.8947 146.35 82.4229C146.867 82.9512 147.539 83.2996 148.268 83.417C156.41 85.2176 162.788 91.981 163.075 100.518Z" fill="white"/>
<path d="M159.013 79.1594C161.432 80.7196 163.583 82.659 165.386 84.9031C164.759 86.223 164.053 87.5035 163.271 88.7376C161.682 86.4192 159.668 84.4225 157.337 82.8529C157.982 81.6629 158.542 80.4286 159.013 79.1594V79.1594Z" fill="#2B2B2B"/>
<path d="M137.763 41.1228C149.944 43.7424 159.761 53.8468 160.792 66.5112C161.144 70.8052 160.544 75.1239 159.035 79.1594C156.998 77.8414 154.787 76.8136 152.466 76.1058C147.938 64.716 137.871 55.8156 125.586 53.7167C119.199 52.6074 112.631 53.2297 106.565 55.5189C100.5 57.8081 95.1587 61.6806 91.097 66.7336C86.2739 65.7014 81.2749 65.8252 76.5089 67.095C71.7428 68.3647 67.3448 70.7444 63.6746 74.0394C60.3986 77.0458 57.8109 80.7245 56.0885 84.8237C54.366 88.9229 53.5495 93.3459 53.6949 97.7899C50.3159 97.7899 46.9424 97.8224 43.5688 97.7899C34.3159 97.7628 25.4456 94.094 18.8768 87.5772C12.3081 81.0604 8.56901 72.2195 8.4685 62.967C8.36799 53.7146 11.9141 44.7946 18.3398 38.1366C24.7654 31.4786 33.5539 27.618 42.8041 27.3899C46.8018 27.335 50.782 27.9284 54.5898 29.1472C56.3959 29.6896 58.1858 28.7458 59.1837 27.276C68.5614 13.4455 85.7166 6.02582 102.221 9.22582C109.755 10.6909 116.759 14.1482 122.504 19.2379C128.25 24.3277 132.526 30.864 134.888 38.1668C134.982 38.9047 135.313 39.5921 135.831 40.1253C136.35 40.6585 137.028 41.0086 137.763 41.1228V41.1228Z" fill="white"/>
<path d="M159.013 79.1593C158.542 80.4286 157.982 81.6629 157.337 82.8529C156.083 82.0068 154.748 81.289 153.351 80.7105C153.563 79.9563 153.536 79.1549 153.275 78.4163C153.025 77.6353 152.748 76.8651 152.445 76.1058C154.765 76.8136 156.976 77.8413 159.013 79.1593V79.1593Z" fill="#2B2B2B"/>
<path d="M153.275 78.4163C153.536 79.1549 153.563 79.9563 153.351 80.7105C152.061 80.1772 150.722 79.7704 149.353 79.4956C148.959 78.2247 148.484 76.9802 147.932 75.7695C148.724 75.4431 149.599 75.3747 150.433 75.5742C151.116 75.7261 151.783 75.8997 152.445 76.1166C152.749 76.8687 153.025 77.6353 153.275 78.4163Z" fill="#2B2B2B"/>
<path d="M149.353 79.4956C150.722 79.7704 152.061 80.1772 153.351 80.7105C152.38 83.9377 146.761 84.6916 145.432 80.5804L145.399 80.4828C145.263 79.5296 145.435 78.5578 145.891 77.7096C146.347 76.8615 147.062 76.1816 147.932 75.7695C148.484 76.9802 148.959 78.2247 149.353 79.4956Z" fill="#2B2B2B"/>
<path d="M145.432 80.5804C146.761 84.6916 152.38 83.9377 153.351 80.7105C154.748 81.2891 156.083 82.0068 157.337 82.8529C159.663 84.4241 161.67 86.4207 163.254 88.7376C164.036 87.5035 164.743 86.223 165.37 84.9031C168.947 89.3423 170.99 94.8205 171.195 100.518C171.569 111.843 164.339 122.142 153.806 126.058C149.467 127.685 144.96 127.626 140.41 127.626H87.0237C81.1932 127.626 75.6339 126.888 70.3295 124.214C66.6884 122.334 63.4573 119.75 60.8241 116.61C58.1909 113.47 56.2082 109.838 54.9912 105.925H59.2651C58.3187 103.312 57.7879 100.567 57.6922 97.7899C57.6922 97.459 57.6922 97.1282 57.6922 96.7973C57.6922 89.6999 60.5116 82.8933 65.5302 77.8747C70.5488 72.8561 77.3555 70.0366 84.4529 70.0366C87.2534 70.0432 90.036 70.4823 92.7024 71.3383C95.8326 66.6276 100.166 62.8402 105.254 60.3692C110.342 57.8982 115.998 56.8335 121.635 57.2856C127.273 57.7377 132.687 59.6901 137.316 62.9403C141.945 66.1906 145.62 70.6201 147.959 75.7695C147.089 76.1815 146.374 76.8614 145.918 77.7096C145.462 78.5578 145.29 79.5296 145.426 80.4827C143.877 75.745 141.091 71.5066 137.356 68.2049C133.622 64.9032 129.074 62.6578 124.182 61.7004C113.47 59.6014 102.324 64.4502 96.2116 73.3885C95.2082 74.8583 93.4346 75.8129 91.6177 75.2597C82.1641 72.3743 71.5878 75.4278 65.8766 83.7424C63.486 87.1447 62.0759 91.1384 61.8003 95.2875C61.5247 99.4366 62.3942 103.582 64.3138 107.27C66.2334 110.959 69.1293 114.049 72.6856 116.204C76.2419 118.359 80.3218 119.496 84.48 119.49C86.9749 119.517 89.4698 119.49 91.9593 119.49H141.017C144.423 119.49 147.715 119.599 151.002 118.454C158.519 115.835 163.352 108.393 163.086 100.518C162.799 91.981 156.42 85.2176 148.279 83.417C147.55 83.2996 146.877 82.9512 146.361 82.4229C145.844 81.8947 145.511 81.2146 145.41 80.4827L145.432 80.5804Z" fill="#2B2B2B"/>
<path d="M142.742 36.122C144.336 41.1281 136.483 43.2542 134.899 38.2915C134.899 38.2535 134.872 38.2156 134.861 38.1776C134.503 35.6393 136.58 32.5749 139.905 33.2962C140.583 33.4427 141.261 33.6108 141.934 33.7952C142.221 34.5545 142.492 35.3301 142.742 36.122Z" fill="#2B2B2B"/>
<path d="M137.763 41.1227C137.027 41.0097 136.348 40.66 135.828 40.1267C135.308 39.5934 134.977 38.9054 134.883 38.1668C134.883 38.2047 134.91 38.2427 134.921 38.2807C136.504 43.2542 144.358 41.1281 142.763 36.1112C142.514 35.3193 142.221 34.5437 141.955 33.7681C144.698 34.5168 147.347 35.5739 149.852 36.9193C162.674 43.84 170.462 58.4461 168.835 72.9491C168.375 77.0909 167.218 81.1251 165.413 84.8814C163.611 82.6372 161.459 80.6978 159.04 79.1376C160.549 75.1021 161.149 70.7835 160.797 66.4895C159.74 53.8468 149.923 43.7424 137.763 41.1227Z" fill="#2B2B2B"/>
<path d="M93.7546 67.4115C92.8651 67.1404 91.9702 66.9126 91.0753 66.7173C95.137 61.6643 100.478 57.7918 106.544 55.5026C112.609 53.2134 119.177 52.591 125.565 53.7003C137.85 55.7993 147.916 64.6997 152.445 76.0895C151.783 75.8834 151.116 75.7099 150.433 75.5471C149.599 75.3476 148.724 75.416 147.932 75.7424C145.593 70.593 141.918 66.1634 137.289 62.9132C132.66 59.663 127.246 57.7106 121.608 57.2585C115.971 56.8063 110.314 57.871 105.227 60.3421C100.139 62.8131 95.8055 66.6005 92.6753 71.3112C91.4594 70.9153 90.2158 70.6108 88.9546 70.4L89.1607 69.2556L93.7546 67.4115Z" fill="#2B2B2B"/>
<path d="M93.7546 67.4115L89.1607 69.2827C89.7682 68.3932 90.4064 67.5381 91.0753 66.7173C91.9702 66.9125 92.8651 67.1403 93.7546 67.4115Z" fill="#2B2B2B"/>
<path d="M59.2651 105.925H54.9912C54.5517 104.521 54.2217 103.085 54.0041 101.63C53.8138 100.358 53.7015 99.0755 53.6678 97.7899H57.6922C57.7879 100.567 58.3186 103.313 59.2651 105.925Z" fill="#2B2B2B"/>
<path d="M56.7268 21.3044L52.1329 23.1701C52.7367 22.2807 53.3641 21.4092 54.0149 20.5559C54.9261 20.7729 55.8264 21.0224 56.7268 21.3044Z" fill="#2B2B2B"/>
<path d="M134.861 38.1668C132.499 30.863 128.224 24.3255 122.478 19.2348C116.733 14.144 109.729 10.6859 102.194 9.22035C85.6895 6.02035 68.5342 13.44 59.1566 27.2705C58.1587 28.7403 56.3688 29.7058 54.5627 29.1417C50.7549 27.9229 46.7747 27.3295 42.7769 27.3844C33.5268 27.6125 24.7383 31.4731 18.3126 38.1311C11.887 44.7891 8.34088 53.7091 8.44139 62.9616C8.5419 72.214 12.281 81.0549 18.8497 87.5717C25.4185 94.0885 34.2888 97.7573 43.5417 97.7844C46.9153 97.817 50.2888 97.7844 53.6678 97.7844C53.7015 99.0701 53.8138 100.352 54.0041 101.624C54.2217 103.08 54.5517 104.516 54.9912 105.92H47.7776C40.0108 105.92 32.5912 105.182 25.3776 101.917C12.5342 96.1031 2.97221 83.6122 0.802718 69.6678C-1.42643 55.3546 3.41153 40.5478 14.1776 30.7092C19.4815 25.8884 25.8865 22.4416 32.8316 20.6705C39.7768 18.8995 47.0502 18.8583 54.0149 20.5505C53.3641 21.4038 52.7367 22.2753 52.1329 23.1648L56.7268 21.299C55.8264 21.017 54.9261 20.7566 54.0149 20.5505C60.9246 11.3359 70.7798 4.76358 81.9422 1.92585C93.1047 -0.911871 104.902 0.155969 115.374 4.95187C127.761 10.4841 137.253 21.158 141.95 33.7736C141.277 33.5892 140.599 33.421 139.921 33.2746C136.58 32.5424 134.508 35.6285 134.861 38.1668Z" fill="#2B2B2B"/>
<path d="M53.6949 97.7898C53.5479 93.3427 54.364 88.9164 56.0875 84.8141C57.8109 80.7119 60.401 77.0308 63.68 74.0231C67.3468 70.7313 71.7399 68.353 76.5009 67.0824C81.2619 65.8118 86.2559 65.6849 91.0753 66.7119C90.4099 67.5291 89.7718 68.3842 89.1607 69.2773L88.9546 70.4217C87.4593 70.1593 85.9439 70.0287 84.4258 70.0312C77.3284 70.0312 70.5217 72.8506 65.5031 77.8692C60.4845 82.8878 57.6651 89.6945 57.6651 96.7919C57.6651 97.1227 57.6651 97.4536 57.6651 97.7844H53.6949V97.7898Z" fill="#2B2B2B"/>
<path d="M54.0149 20.5559C47.0502 18.8637 39.7768 18.9049 32.8316 20.676C25.8865 22.447 19.4815 25.8938 14.1776 30.7146C3.41153 40.5532 -1.42643 55.36 0.802718 69.6732C2.97221 83.6176 12.5342 96.1085 25.3776 101.923C32.5803 105.177 40.0217 105.925 47.7776 105.925H54.9912" stroke="#2B2B2B" stroke-miterlimit="10"/>
<path d="M54.0149 20.5559C54.9261 20.7729 55.8264 21.0224 56.7268 21.3044L52.1329 23.1701C52.7367 22.2807 53.3641 21.4092 54.0149 20.5559Z" stroke="#2B2B2B" stroke-miterlimit="10"/>
<path d="M141.934 33.7789C137.253 21.1633 127.761 10.4894 115.357 4.95725C104.888 0.165555 93.0939 -0.900007 81.935 1.93757C70.7761 4.77514 60.9238 11.345 54.0149 20.5559" stroke="#2B2B2B" stroke-miterlimit="10"/>
<path d="M53.6949 97.7899C50.3159 97.7899 46.9424 97.8224 43.5688 97.7899C34.3159 97.7628 25.4456 94.094 18.8768 87.5772C12.3081 81.0604 8.56901 72.2195 8.4685 62.967C8.36799 53.7146 11.9141 44.7946 18.3398 38.1366C24.7654 31.4786 33.5539 27.618 42.8041 27.3899C46.8018 27.335 50.782 27.9284 54.5898 29.1472C56.3959 29.6896 58.1858 28.7458 59.1837 27.276C68.5614 13.4455 85.7166 6.02582 102.221 9.22582C109.755 10.6909 116.759 14.1482 122.504 19.2379C128.25 24.3277 132.526 30.864 134.888 38.1668" stroke="#2B2B2B" stroke-miterlimit="10"/>
<path d="M134.861 38.1668C134.955 38.9055 135.287 39.5935 135.806 40.1268C136.326 40.6601 137.005 41.0097 137.741 41.1227C149.923 43.7424 159.74 53.8468 160.77 66.5112C161.122 70.8052 160.522 75.1239 159.013 79.1594" stroke="#2B2B2B" stroke-miterlimit="10"/>
<path d="M165.386 84.9031C167.191 81.1469 168.348 77.1127 168.808 72.9709C170.435 58.4678 162.652 43.8617 149.825 36.941C147.32 35.5956 144.671 34.5385 141.928 33.7899" stroke="#2B2B2B" stroke-miterlimit="10"/>
<path d="M134.861 38.1668C134.861 38.2048 134.888 38.2427 134.899 38.2807C136.483 43.2542 144.336 41.1281 142.742 36.1112C142.492 35.3193 142.199 34.5437 141.934 33.7681C141.261 33.5837 140.583 33.4156 139.905 33.2692C136.58 32.5424 134.508 35.6285 134.861 38.1668Z" stroke="#2B2B2B" stroke-miterlimit="10"/>
<path d="M145.399 80.4828L145.432 80.5804C146.761 84.6916 152.38 83.9377 153.35 80.7105C153.563 79.9563 153.536 79.1549 153.275 78.4163C153.025 77.6353 152.748 76.8651 152.445 76.1058C147.916 64.716 137.849 55.8156 125.565 53.7166C119.177 52.6073 112.609 53.2297 106.544 55.5189C100.478 57.8081 95.137 61.6806 91.0753 66.7336C90.41 67.5508 89.7718 68.4059 89.1607 69.299L93.7546 67.4278C92.8651 67.1567 91.9702 66.9289 91.0753 66.7336C86.2522 65.7014 81.2532 65.8252 76.4872 67.0949C71.7211 68.3647 67.3232 70.7444 63.6529 74.0394C60.3809 77.0478 57.7972 80.7273 56.0786 84.8264C54.3599 88.9256 53.5468 93.3475 53.6949 97.7899C53.7286 99.0755 53.8409 100.358 54.0312 101.63C54.2488 103.085 54.5788 104.521 55.0183 105.925C56.2334 109.834 58.2126 113.462 60.8409 116.6C63.4693 119.738 66.6945 122.322 70.3295 124.203C75.6285 126.877 81.177 127.615 87.0237 127.615H140.426C144.976 127.615 149.467 127.669 153.822 126.047C164.355 122.132 171.585 111.832 171.211 100.507C171.007 94.8096 168.963 89.3314 165.386 84.8922C163.583 82.6481 161.432 80.7087 159.013 79.1485C156.976 77.8305 154.765 76.8028 152.445 76.0949C151.783 75.8888 151.116 75.7153 150.433 75.5526C149.599 75.3531 148.724 75.4214 147.932 75.7478C147.062 76.1599 146.346 76.8398 145.891 77.6879C145.435 78.5361 145.263 79.5079 145.399 80.4611" stroke="#2B2B2B" stroke-miterlimit="10"/>
<path d="M145.399 80.4827C145.5 81.2146 145.834 81.8947 146.35 82.4229C146.867 82.9512 147.539 83.2996 148.268 83.417C156.404 85.2176 162.788 91.981 163.075 100.518C163.341 108.393 158.509 115.835 150.991 118.454C147.704 119.599 144.412 119.49 141.006 119.49H91.9322C89.4427 119.49 86.9478 119.517 84.4529 119.49C80.2947 119.496 76.2148 118.359 72.6585 116.204C69.1022 114.049 66.2062 110.959 64.2866 107.27C62.3671 103.582 61.4976 99.4366 61.7732 95.2875C62.0488 91.1384 63.4589 87.1447 65.8495 83.7424C71.5607 75.4278 82.1207 72.3526 91.5905 75.2597C93.4075 75.802 95.181 74.8583 96.1844 73.3885C102.297 64.4502 113.443 59.6014 124.155 61.7003C129.047 62.6578 133.594 64.9032 137.329 68.2049C141.064 71.5066 143.85 75.745 145.399 80.4827V80.4827Z" stroke="#2B2B2B" stroke-miterlimit="10"/>
</g>
<defs>
<clipPath id="clip0">
<rect width="171.932" height="128" fill="white"/>
</clipPath>
</defs>
</svg>
