<svg width="156" height="128" viewBox="0 0 156 128" fill="none" xmlns="http://www.w3.org/2000/svg">
<g clip-path="url(#clip0)">
<path d="M121.41 93.5668C128.806 93.5693 135.94 90.8245 141.427 85.8648C146.915 80.9051 150.364 74.0841 151.107 66.7249C151.849 59.3658 149.832 51.9931 145.447 46.0371C141.061 40.081 134.619 35.9662 127.372 34.4908C124.995 26.8103 120.488 19.9615 114.375 14.7397C108.262 9.51784 100.793 6.13712 92.8351 4.99006C84.8775 3.843 76.7578 4.97665 69.4187 8.2594C62.0796 11.5421 55.8222 16.8393 51.373 23.5359C46.4386 21.9344 41.2157 21.4217 36.0641 22.0333C30.9125 22.6449 25.9548 24.3661 21.5325 27.0784C17.1103 29.7906 13.3287 33.4295 10.4483 37.7441C7.56789 42.0587 5.6572 46.9466 4.84789 52.0708C4.03858 57.195 4.34988 62.4338 5.76036 67.4261C7.17084 72.4185 9.64694 77.0456 13.018 80.9887C16.3892 84.9319 20.5751 88.0972 25.2874 90.2667C29.9998 92.4362 35.1265 93.5581 40.3142 93.5553" fill="white"/>
<path d="M121.41 97.8912C129.752 97.8032 137.78 94.6988 144.011 89.1515C150.242 83.6042 154.254 75.989 155.307 67.7132C157.44 50.4159 145.505 34.0007 128.519 30.3164L131.54 33.3377C126.311 16.9686 112.415 4.0418 95.3254 1.04937C86.2621 -0.545456 76.9307 0.526247 68.4649 4.13427C59.9991 7.74228 52.7633 13.7313 47.6368 21.3737L52.5204 19.3845C34.4159 13.7975 14.2645 21.5582 5.09119 38.2789C-3.64971 54.2213 -0.455471 74.8166 12.9672 87.1668C20.4373 94.0067 30.1803 97.8303 40.3085 97.8969C45.8782 97.9604 45.8782 89.3117 40.3085 89.2483C26.1824 89.0926 13.5784 79.6771 9.84219 65.9546C8.06198 59.2174 8.54124 52.0822 11.2065 45.6436C13.8717 39.2049 18.5757 33.8185 24.5968 30.3106C32.4267 25.796 41.6288 25.0695 50.2141 27.7218C52.1398 28.2984 54.0368 27.2951 55.0977 25.7326C63.5388 13.3131 78.9795 6.62486 93.8148 9.5308C100.599 10.8594 106.903 13.9827 112.069 18.5755C117.236 23.1682 121.077 29.0624 123.191 35.644C123.392 36.3651 123.776 37.0221 124.305 37.5514C124.835 38.0807 125.492 38.4643 126.213 38.6652C139.203 41.4847 148.411 53.5121 146.745 66.9175C145.165 79.654 134.06 89.0638 121.375 89.231C115.817 89.3059 115.8 97.9546 121.375 97.8796L121.41 97.8912Z" fill="#2B2B2B"/>
<path d="M56.0432 72.8332L51.7939 61.7629C50.9578 59.5834 48.911 58.0786 46.4721 58.7416C44.3906 59.3182 42.609 61.8667 43.4508 64.0634L47.7002 75.1337C48.5362 77.3131 50.5831 78.818 53.022 78.1549C55.1034 77.5784 56.885 75.0299 56.0432 72.8332Z" fill="#2B2B2B"/>
<path d="M77.9301 72.8389L73.6808 61.7687C72.8447 59.5892 70.7979 58.0843 68.359 58.7474C66.2775 59.324 64.4959 61.8724 65.3377 64.0692L69.5871 75.1395C70.4231 77.3189 72.47 78.8238 74.9089 78.1607C76.9903 77.5841 78.7719 75.0357 77.9301 72.8389Z" fill="#2B2B2B"/>
<path d="M99.8169 72.8389L95.5675 61.7687C94.7315 59.5892 92.6847 58.0843 90.2457 58.7474C88.1643 59.324 86.3827 61.8724 87.2245 64.0692L91.4739 75.1395C92.3099 77.3189 94.3567 78.8238 96.7957 78.1607C98.8771 77.5841 100.659 75.0357 99.8169 72.8389Z" fill="#2B2B2B"/>
<path d="M65.5395 97.5625L61.2843 86.4865C60.4483 84.307 58.4015 82.8022 55.9625 83.4652C53.8811 84.0418 52.0995 86.5903 52.9413 88.787L57.1907 99.8573C58.0267 102.037 60.0735 103.542 62.5125 102.879C64.5939 102.302 66.3755 99.7535 65.5337 97.5568L65.5395 97.5625Z" fill="#2B2B2B"/>
<path d="M87.4264 97.5625L83.177 86.4865C82.341 84.307 80.2941 82.8022 77.8552 83.4652C75.7737 84.0418 73.9921 86.5903 74.8339 88.787L79.0833 99.8573C79.9193 102.037 81.9662 103.542 84.4051 102.879C86.4865 102.302 88.2682 99.7535 87.4264 97.5568V97.5625Z" fill="#2B2B2B"/>
<path d="M109.313 97.5625L105.064 86.4865C104.228 84.307 102.181 82.8022 99.742 83.4652C97.6605 84.0418 95.8789 86.5903 96.7207 88.787L100.97 99.8573C101.806 102.037 103.853 103.542 106.292 102.879C108.373 102.302 110.155 99.7535 109.313 97.5568V97.5625Z" fill="#2B2B2B"/>
<path d="M75.0357 122.286L70.7864 111.216C69.9503 109.036 67.9035 107.532 65.4646 108.195C63.3831 108.771 61.6015 111.32 62.4433 113.516L66.6927 124.587C67.5287 126.766 69.5755 128.271 72.0145 127.608C74.0959 127.031 75.8775 124.483 75.0357 122.286Z" fill="#2B2B2B"/>
<path d="M96.9225 122.286L92.6731 111.216C91.8371 109.036 89.7903 107.532 87.3513 108.195C85.2699 108.771 83.4883 111.32 84.3301 113.516L88.5794 124.587C89.4155 126.766 91.4623 128.271 93.9012 127.608C95.9827 127.031 97.7643 124.483 96.9225 122.286Z" fill="#2B2B2B"/>
<path d="M118.809 122.286L114.56 111.216C113.724 109.036 111.677 107.532 109.238 108.195C107.157 108.771 105.375 111.32 106.217 113.516L110.466 124.587C111.302 126.766 113.349 128.271 115.788 127.608C117.87 127.031 119.651 124.483 118.809 122.286Z" fill="#2B2B2B"/>
</g>
<defs>
<clipPath id="clip0">
<rect width="155.676" height="128" fill="white"/>
</clipPath>
</defs>
</svg>
