<svg width="128" height="128" viewBox="0 0 128 128" fill="none" xmlns="http://www.w3.org/2000/svg">
<path d="M69.3701 90.3699L8.13609 29.131C6.76741 27.7625 5.6817 26.1378 4.94096 24.3497C4.20022 22.5615 3.81897 20.645 3.81897 18.7095C3.81897 16.7741 4.20022 14.8575 4.94096 13.0694C5.6817 11.2813 6.76741 9.65659 8.13609 8.28809C9.50459 6.9194 11.1293 5.83369 12.9174 5.09295C14.7055 4.35222 16.6221 3.97096 18.5575 3.97096C20.493 3.97096 22.4096 4.35222 24.1977 5.09295C25.9858 5.83369 27.6105 6.9194 28.979 8.28809L90.2179 69.527C96.0887 68.1799 102.238 68.7793 107.738 71.2347C113.239 73.6901 117.791 77.8682 120.707 83.1382C123.624 88.4083 124.747 94.4842 123.907 100.449C123.066 106.413 120.308 111.942 116.049 116.201C111.79 120.46 106.261 123.218 100.297 124.059C94.3322 124.899 88.2563 123.776 82.9862 120.859C77.7162 117.943 73.5381 113.391 71.0827 107.89C68.6273 102.39 68.0279 96.2407 69.375 90.3699H69.3701Z" fill="white"/>
<path d="M71.9742 87.7707L34.9866 50.7831L14.3301 30.1266C13.1335 28.93 11.9123 27.7578 10.7451 26.5416C5.35046 20.9018 7.11107 11.1816 14.6292 8.36658C22.7898 5.31126 28.1747 12.6823 33.2064 17.714L56.1385 40.6461L79.7474 64.255L86.4269 70.9345C86.8144 71.322 87.1822 71.7585 87.599 72.1067C89.2174 73.4651 90.7181 73.0875 92.6406 72.7883C94.9693 72.4125 97.3407 72.3828 99.6781 72.7001C108.506 73.9016 116.323 80.1986 119.153 88.6878C121.816 96.6719 120.315 105.892 114.69 112.282C109.222 118.491 100.87 121.732 92.621 120.379C84.0043 118.957 76.4763 112.831 73.6662 104.499C72.2301 100.269 71.969 95.7277 72.9109 91.3606C73.8918 86.7457 66.8101 84.7693 65.8194 89.3989C63.4556 100.428 66.7512 112.13 75.2159 119.805C78.9552 123.161 83.4348 125.586 88.2894 126.881C93.144 128.177 98.2361 128.306 103.15 127.259C113.356 125.107 121.85 117.637 125.661 108.001C129.432 98.4668 128.172 87.0155 122.228 78.6293C114.729 68.0607 101.856 63.2594 89.2469 65.9666L92.8269 66.9131L66.6924 40.7981L33.2947 7.40045C32.145 6.18558 30.9128 5.05163 29.6067 4.00673C26.7589 1.88571 23.3626 0.625785 19.8205 0.376317C16.2784 0.126848 12.739 0.898302 9.62203 2.59922C-1.37812 8.6265 -2.61398 23.4814 5.89974 32.0981C15.7523 42.0683 25.7226 51.9209 35.634 61.8323C45.82 72.0184 55.8246 82.43 66.2069 92.4052C66.3981 92.5916 66.5845 92.7828 66.7708 92.9692C70.1204 96.3237 75.3238 91.1203 71.9742 87.7707Z" fill="#2B2B2B"/>
<path d="M82.1652 87.6776L15.8897 21.3922C15.179 20.6813 14.7798 19.7172 14.7798 18.712C14.7798 17.7068 15.179 16.7428 15.8897 16.0319V16.0319C16.6006 15.3212 17.5646 14.922 18.5698 14.922C19.575 14.922 20.5391 15.3212 21.25 16.0319L87.5255 82.3172C91.0259 80.1332 95.2074 79.3134 99.2733 80.0141C103.339 80.7148 107.005 82.887 109.573 86.1167C112.14 89.3465 113.429 93.408 113.194 97.5271C112.96 101.646 111.218 105.535 108.301 108.453C105.383 111.37 101.494 113.112 97.3751 113.346C93.256 113.581 89.1945 112.292 85.9647 109.725C82.735 107.157 80.5628 103.491 79.8621 99.4254C79.1614 95.3595 79.9812 91.1779 82.1652 87.6776V87.6776Z" fill="#2B2B2B"/>
</svg>
